# xmcd CD database file
#
# Track frame offsets:
#	150
#	18654
#	36641
#	61801
#	84821
#	109060
#	124531
#	141172
#	163229
#	189806
#	194533
#
# Disc length: 2881 seconds
#
# Revision: 0
# Processed by: cddbd v1.5.1PL0 Copyright (c) Steve Scherf et al.
# Submitted via: CDex 1.51
#
DISCID=920b3f0b
DTITLE=真矢みき - 赤と黒のキャバレー
DYEAR=2004
DGENRE=JPop
TTITLE0=赤と黒のタンゴ
TTITLE1=ジェラシー・ジェラシー
TTITLE2=太陽の血
TTITLE3=コートダジュールへの最終列車
TTITLE4=レストランの片隅で
TTITLE5=MAYBE THIS TIME
TTITLE6=CABARET
TTITLE7=雨
TTITLE8=kiss，kiss，kiss
TTITLE9=MAYA’S WALTZ
TTITLE10=バーレスクがお似合い
EXTD=YEAR: 2004
EXTT0=
EXTT1=
EXTT2=
EXTT3=
EXTT4=
EXTT5=
EXTT6=
EXTT7=
EXTT8=
EXTT9=
EXTT10=
PLAYORDER=
